control3min_grf.mot
version=1
nRows=10
nColumns 19
inDegrees=yes
endheader
time	1_ground_force_vx	1_ground_force_vy	1_ground_force_vz	1_ground_force_px	1_ground_force_py	1_ground_force_pz	1_ground_torque_x	1_ground_torque_y	1_ground_torque_z	2_ground_force_vx	2_ground_force_vy	2_ground_force_vz	2_ground_force_px	2_ground_force_py	2_ground_force_pz	2_ground_torque_x	2_ground_torque_y	2_ground_torque_z
            2.502500	          -31.516418	         1336.330128	         -126.535720	           -0.259357	            0.006258	           -0.414539	           -0.244893	           10.383736	           -0.983225	          -78.483847	         1187.357530	          144.304387	           -0.237321	            0.005574	           -0.682850	            0.570998	           -8.638451	           -1.049866
            2.503000	          -32.113918	         1335.431603	         -127.225933	           -0.259251	            0.006257	           -0.414433	           -0.248700	           10.341997	           -0.985277	          -77.690562	         1188.279709	          144.682758	           -0.237453	            0.005573	           -0.682819	            0.557768	           -8.531077	           -1.038728
            2.503500	          -32.297236	         1333.268848	         -127.372326	           -0.259116	            0.006257	           -0.414472	           -0.249662	           10.306350	           -0.984605	          -76.668406	         1190.676606	          144.925510	           -0.237667	            0.005573	           -0.682894	            0.547701	           -8.505913	           -1.035314
            2.504000	          -32.527343	         1331.288074	         -127.884678	           -0.258903	            0.006258	           -0.414555	           -0.247538	           10.131315	           -0.973223	          -76.017684	         1192.150928	          145.258976	           -0.237779	            0.005572	           -0.682869	            0.536438	           -8.412718	           -1.025057
            2.504500	          -33.261658	         1330.208169	         -128.300210	           -0.258768	            0.006258	           -0.414503	           -0.250721	           10.026895	           -0.967106	          -74.988804	         1192.705794	          145.635934	           -0.237845	            0.005572	           -0.682815	            0.534422	           -8.500047	           -1.037902
            2.505000	          -33.673462	         1328.404585	         -128.123477	           -0.258632	            0.006257	           -0.414406	           -0.253880	           10.015471	           -0.965984	          -74.012286	         1194.735122	          145.595807	           -0.237933	            0.005572	           -0.682842	            0.525514	           -8.483053	           -1.033783
            2.505500	          -34.544214	         1326.962291	         -128.127499	           -0.258404	            0.006257	           -0.414387	           -0.260665	           10.013049	           -0.966830	          -72.566595	         1196.581895	          145.601760	           -0.238028	            0.005571	           -0.682875	            0.519513	           -8.566475	           -1.042381
            2.506000	          -34.956572	         1325.700504	         -128.131885	           -0.258290	            0.006256	           -0.414175	           -0.266718	           10.115073	           -0.977644	          -71.680436	         1197.689831	          145.605323	           -0.238207	            0.005571	           -0.682837	            0.506252	           -8.458836	           -1.028356
            2.506500	          -35.369100	         1323.537704	         -128.277709	           -0.258185	            0.006257	           -0.414230	           -0.270440	           10.120066	           -0.980840	          -70.187721	         1199.535434	          145.986681	           -0.238357	            0.005571	           -0.683016	            0.493103	           -8.427320	           -1.025628
            2.507000	          -35.919735	         1322.637419	         -128.555351	           -0.257945	            0.006256	           -0.414078	           -0.270657	            9.966137	           -0.968671	          -69.302166	         1200.827192	          146.131710	           -0.238462	            0.005570	           -0.682981	            0.485061	           -8.404860	           -1.022809
